<svg xmlns="http://www.w3.org/2000/svg" viewBox="0 0 64 64" role="img" aria-labelledby="title desc">
  <title id="title">Employee Management System</title>
  <desc id="desc">A generic group of employees inside a rounded blue square.</desc>
  <defs>
    <linearGradient id="brand" x1="8" y1="6" x2="56" y2="58" gradientUnits="userSpaceOnUse">
      <stop stop-color="#38bdf8"/>
      <stop offset="1" stop-color="#2563eb"/>
    </linearGradient>
  </defs>
  <rect x="2" y="2" width="60" height="60" rx="16" fill="url(#brand)"/>
  <circle cx="32" cy="23" r="8" fill="#fff"/>
  <circle cx="18" cy="29" r="6" fill="#dbeafe"/>
  <circle cx="46" cy="29" r="6" fill="#dbeafe"/>
  <path d="M19 48c1-9 6-14 13-14s12 5 13 14H19Z" fill="#fff"/>
  <path d="M7 48c1-7 5-11 11-11 3 0 5 1 7 3-3 2-5 5-6 8H7Zm38 0c-1-3-3-6-6-8 2-2 4-3 7-3 6 0 10 4 11 11H45Z" fill="#dbeafe"/>
</svg>
