<svg xmlns="http://www.w3.org/2000/svg" viewBox="0 0 1000 640" role="img" aria-labelledby="title desc">
  <title id="title">Attendance placeholder</title><desc id="desc">A generic attendance interface with demo check-in status and monthly calendar.</desc>
  <rect width="1000" height="640" rx="24" fill="#eef5fc"/><rect x="34" y="34" width="932" height="572" rx="20" fill="#fff"/>
  <text x="76" y="94" fill="#10203b" font-family="Arial" font-size="25" font-weight="700">Employee Attendance</text><text x="76" y="124" fill="#6b7c91" font-family="Arial" font-size="13">GPS-assisted demo workflow</text>
  <rect x="76" y="160" width="315" height="394" rx="18" fill="#071225"/><circle cx="234" cy="271" r="70" fill="#0c2747"/><circle cx="234" cy="271" r="49" fill="#1677ff"/><text x="234" y="266" text-anchor="middle" fill="#fff" font-family="Arial" font-size="13">CHECK IN</text><text x="234" y="287" text-anchor="middle" fill="#cce7ff" font-family="Arial" font-size="12">08:00</text><text x="234" y="379" text-anchor="middle" fill="#fff" font-family="Arial" font-size="16" font-weight="700">Ready for attendance</text><text x="234" y="408" text-anchor="middle" fill="#8ca2bd" font-family="Arial" font-size="12">Demo Office · Accuracy 15 m</text><rect x="118" y="452" width="232" height="48" rx="13" fill="#1677ff"/><text x="234" y="482" text-anchor="middle" fill="#fff" font-family="Arial" font-size="13" font-weight="700">Record check-in</text>
  <text x="438" y="186" fill="#10203b" font-family="Arial" font-size="15" font-weight="700">Monthly status</text><g fill="#6b7c91" font-family="Arial" font-size="11"><text x="454" y="237">MON</text><text x="527" y="237">TUE</text><text x="600" y="237">WED</text><text x="673" y="237">THU</text><text x="746" y="237">FRI</text><text x="819" y="237">SAT</text><text x="892" y="237">SUN</text></g>
  <g fill="#e8f1fb"><rect x="438" y="258" width="58" height="58" rx="12"/><rect x="511" y="258" width="58" height="58" rx="12"/><rect x="584" y="258" width="58" height="58" rx="12"/><rect x="657" y="258" width="58" height="58" rx="12"/><rect x="730" y="258" width="58" height="58" rx="12"/><rect x="803" y="258" width="58" height="58" rx="12"/><rect x="876" y="258" width="58" height="58" rx="12"/></g><g fill="#d8f7e8"><rect x="438" y="331" width="58" height="58" rx="12"/><rect x="511" y="331" width="58" height="58" rx="12"/><rect x="584" y="331" width="58" height="58" rx="12"/><rect x="657" y="331" width="58" height="58" rx="12"/><rect x="730" y="331" width="58" height="58" rx="12"/></g><g fill="#fff0cf"><rect x="438" y="404" width="58" height="58" rx="12"/><rect x="511" y="404" width="58" height="58" rx="12"/></g>
  <rect x="438" y="497" width="496" height="57" rx="14" fill="#f5f8fc"/><circle cx="468" cy="526" r="8" fill="#22c55e"/><text x="488" y="531" fill="#50637e" font-family="Arial" font-size="12">Complete</text><circle cx="594" cy="526" r="8" fill="#f59e0b"/><text x="614" y="531" fill="#50637e" font-family="Arial" font-size="12">Needs check-out</text><circle cx="770" cy="526" r="8" fill="#cbd5e1"/><text x="790" y="531" fill="#50637e" font-family="Arial" font-size="12">No record</text>
</svg>
