<svg xmlns="http://www.w3.org/2000/svg" viewBox="0 0 1200 760" role="img" aria-labelledby="title desc">
  <title id="title">Dashboard placeholder</title><desc id="desc">A generic employee dashboard interface using fictional summary values.</desc>
  <defs><linearGradient id="bg" x1="0" y1="0" x2="1" y2="1"><stop stop-color="#eaf4ff"/><stop offset="1" stop-color="#f8fbff"/></linearGradient><linearGradient id="brand" x1="0" y1="0" x2="1" y2="1"><stop stop-color="#38bdf8"/><stop offset="1" stop-color="#2563eb"/></linearGradient></defs>
  <rect width="1200" height="760" rx="28" fill="url(#bg)"/>
  <rect width="225" height="760" rx="28" fill="#071225"/>
  <rect x="26" y="28" width="46" height="46" rx="14" fill="url(#brand)"/><text x="84" y="48" fill="#fff" font-family="Arial" font-size="15" font-weight="700">Employee</text><text x="84" y="66" fill="#7f96b4" font-family="Arial" font-size="11">Management</text>
  <g fill="#213a59"><rect x="25" y="125" width="175" height="42" rx="12"/><rect x="25" y="182" width="175" height="42" rx="12"/><rect x="25" y="239" width="175" height="42" rx="12"/><rect x="25" y="296" width="175" height="42" rx="12"/></g>
  <g fill="#9db0c8" font-family="Arial" font-size="12"><text x="49" y="151">Dashboard</text><text x="49" y="208">Employees</text><text x="49" y="265">Attendance</text><text x="49" y="322">Reports</text></g>
  <text x="270" y="78" fill="#10203b" font-family="Arial" font-size="27" font-weight="700">Operations overview</text><text x="270" y="107" fill="#66778d" font-family="Arial" font-size="14">Fictional portfolio data</text>
  <g><rect x="270" y="146" width="265" height="142" rx="18" fill="#fff"/><rect x="555" y="146" width="265" height="142" rx="18" fill="#fff"/><rect x="840" y="146" width="300" height="142" rx="18" fill="#fff"/></g>
  <g font-family="Arial"><text x="296" y="182" fill="#718197" font-size="12">ACTIVE EMPLOYEES</text><text x="296" y="248" fill="#10203b" font-size="40" font-weight="700">24</text><text x="581" y="182" fill="#718197" font-size="12">PRESENT TODAY</text><text x="581" y="248" fill="#10203b" font-size="40" font-weight="700">21</text><text x="866" y="182" fill="#718197" font-size="12">MONTHLY ATTENDANCE</text><text x="866" y="248" fill="#10203b" font-size="40" font-weight="700">94%</text></g>
  <rect x="270" y="316" width="560" height="384" rx="18" fill="#fff"/><text x="298" y="358" fill="#10203b" font-family="Arial" font-size="16" font-weight="700">Attendance trend</text>
  <g fill="#d6e7fb"><rect x="310" y="515" width="46" height="135" rx="9"/><rect x="382" y="460" width="46" height="190" rx="9"/><rect x="454" y="420" width="46" height="230" rx="9"/><rect x="526" y="486" width="46" height="164" rx="9"/><rect x="598" y="395" width="46" height="255" rx="9"/><rect x="670" y="438" width="46" height="212" rx="9"/><rect x="742" y="373" width="46" height="277" rx="9"/></g>
  <rect x="840" y="316" width="300" height="384" rx="18" fill="#fff"/><text x="868" y="358" fill="#10203b" font-family="Arial" font-size="16" font-weight="700">Recent activity</text>
  <g><circle cx="886" cy="408" r="14" fill="#d8f7e8"/><circle cx="886" cy="479" r="14" fill="#dcebff"/><circle cx="886" cy="550" r="14" fill="#fff0cf"/><circle cx="886" cy="621" r="14" fill="#dcebff"/></g><g fill="#50637e" font-family="Arial" font-size="12"><text x="914" y="404">Employee checked in</text><text x="914" y="424">08:02 · Demo Office</text><text x="914" y="475">Leave record created</text><text x="914" y="495">Fictional request</text><text x="914" y="546">Overtime started</text><text x="914" y="566">17:15 · Demo Office</text><text x="914" y="617">Report exported</text><text x="914" y="637">Monthly summary</text></g>
</svg>
