<svg xmlns="http://www.w3.org/2000/svg" viewBox="0 0 1000 640" role="img" aria-labelledby="title desc">
  <title id="title">Leave placeholder</title><desc id="desc">A generic leave request interface using fictional entries.</desc>
  <rect width="1000" height="640" rx="24" fill="#eef5fc"/><rect x="34" y="34" width="932" height="572" rx="20" fill="#fff"/>
  <text x="76" y="94" fill="#10203b" font-family="Arial" font-size="25" font-weight="700">Leave Management</text><text x="76" y="124" fill="#6b7c91" font-family="Arial" font-size="13">Eligibility and request history</text>
  <rect x="76" y="159" width="336" height="397" rx="18" fill="#f4f8fc"/><text x="103" y="200" fill="#10203b" font-family="Arial" font-size="15" font-weight="700">New leave record</text><text x="103" y="247" fill="#6b7c91" font-family="Arial" font-size="11">LEAVE DATE</text><rect x="103" y="263" width="282" height="48" rx="12" fill="#fff" stroke="#d9e3ef"/><text x="121" y="293" fill="#344863" font-family="Arial" font-size="13">Fictional future date</text><text x="103" y="349" fill="#6b7c91" font-family="Arial" font-size="11">REASON</text><rect x="103" y="365" width="282" height="92" rx="12" fill="#fff" stroke="#d9e3ef"/><text x="121" y="395" fill="#60738d" font-family="Arial" font-size="12">Portfolio demonstration</text><rect x="103" y="484" width="282" height="47" rx="12" fill="#1677ff"/><text x="244" y="513" text-anchor="middle" fill="#fff" font-family="Arial" font-size="13" font-weight="700">Submit record</text>
  <text x="457" y="188" fill="#10203b" font-family="Arial" font-size="15" font-weight="700">Request history</text><g><rect x="457" y="220" width="465" height="86" rx="15" fill="#f8fbfe"/><rect x="457" y="321" width="465" height="86" rx="15" fill="#f8fbfe"/><rect x="457" y="422" width="465" height="86" rx="15" fill="#f8fbfe"/></g><g fill="#10203b" font-family="Arial" font-size="13" font-weight="700"><text x="481" y="254">Personal leave</text><text x="481" y="355">Appointment</text><text x="481" y="456">Personal leave</text></g><g fill="#6b7c91" font-family="Arial" font-size="11"><text x="481" y="280">Fictional record · Demo data</text><text x="481" y="381">Fictional record · Demo data</text><text x="481" y="482">Fictional record · Demo data</text></g><g><rect x="799" y="244" width="98" height="30" rx="15" fill="#dcebff"/><rect x="799" y="345" width="98" height="30" rx="15" fill="#d8f7e8"/><rect x="799" y="446" width="98" height="30" rx="15" fill="#fff0cf"/></g><g fill="#28598a" font-family="Arial" font-size="10" font-weight="700" text-anchor="middle"><text x="848" y="263">RECORDED</text><text x="848" y="364">ELIGIBLE</text><text x="848" y="465">UPCOMING</text></g>
</svg>
